<svg  viewBox="0 0 60 60" xmlns="http://www.w3.org/2000/svg">
<path d="M30 6C16.746 6 6 16.746 6 30C6 43.254 16.746 54 30 54C43.254 54 54 43.254 54 30C54 16.746 43.254 6 30 6ZM20.992 16.806C22.676 16.806 23.798 17.928 23.798 19.424C23.798 20.92 22.676 22.042 20.806 22.042C19.122 22.044 18 20.92 18 19.424C18 17.928 19.122 16.806 20.992 16.806ZM24 40H18V24H24V40ZM44 40H38.352V31.256C38.352 28.838 36.846 28.28 36.282 28.28C35.718 28.28 33.834 28.652 33.834 31.256C33.834 31.628 33.834 40 33.834 40H28V24H33.836V26.232C34.588 24.93 36.094 24 38.918 24C41.742 24 44 26.232 44 31.256V40Z" />
</svg>
