<svg width="60" height="60" viewBox="0 0 60 60" fill="none" xmlns="http://www.w3.org/2000/svg">
<path d="M47.465 54.6625V38.6525H52.8V60H4.60999V38.6525H9.93499V54.6625H47.465ZM15.2775 49.3275H42.125V43.985H15.2775V49.3275ZM15.925 37.1975L42.125 42.67L43.2525 37.495L17.0575 32.0275L15.925 37.1975ZM19.3225 24.5575L43.585 35.8825L45.8425 31.0075L21.5775 19.6825L19.3225 24.5225V24.5575ZM26.11 12.595L46.6525 29.7325L50.05 25.6825L29.51 8.55L26.135 12.5925L26.11 12.595ZM39.3775 0L35.0125 3.235L51.025 24.745L55.39 21.51L39.3725 0H39.3775Z" fill="#EFEFEF"/>
</svg>
